<svg width="66" height="66" viewBox="0 0 66 66" fill="none" xmlns="http://www.w3.org/2000/svg">
<path id="Oval Copy" d="M33 2C50.1208 2 64 15.8792 64 33H66C66 14.7746 51.2254 0 33 0V2ZM2 33C2 15.8792 15.8792 2 33 2V0C14.7746 0 0 14.7746 0 33H2ZM33 64C15.8792 64 2 50.1208 2 33H0C0 51.2254 14.7746 66 33 66V64ZM64 33C64 50.1208 50.1208 64 33 64V66C51.2254 66 66 51.2254 66 33H64ZM33 18.963C25.2476 18.963 18.963 25.2476 18.963 33H20.963C20.963 26.3521 26.3521 20.963 33 20.963V18.963ZM47.037 33C47.037 25.2476 40.7524 18.963 33 18.963V20.963C39.6479 20.963 45.037 26.3521 45.037 33H47.037ZM33 47.037C40.7524 47.037 47.037 40.7524 47.037 33H45.037C45.037 39.6479 39.6479 45.037 33 45.037V47.037ZM18.963 33C18.963 40.7524 25.2476 47.037 33 47.037V45.037C26.3521 45.037 20.963 39.6479 20.963 33H18.963Z" fill="#F2B137"/>
</svg>
